<svg width="151" height="210" viewBox="0 0 151 210" fill="none" xmlns="http://www.w3.org/2000/svg">
<path d="M82.0658 72.1682V209.994C100.348 209.994 117.882 202.733 130.81 189.81C143.737 176.886 151 159.358 151 141.081C151 122.804 143.737 105.276 130.81 92.3522C117.882 79.4286 100.348 72.1682 82.0658 72.1682Z" fill="white"/>
<path d="M61.2817 209.849C63.8643 210.024 66.455 210.047 69.0404 209.917C69.5273 207.375 69.8617 204.805 70.0417 202.222C70.7026 192.944 69.3858 183.631 66.1784 174.9C62.971 166.168 57.946 158.217 51.4358 151.572C44.9255 144.926 37.0783 139.738 28.4129 136.35C19.7476 132.962 10.4615 131.452 1.16876 131.919C0.683519 134.462 0.346612 137.031 0.159746 139.614C-0.442338 148.238 0.661241 156.896 3.40743 165.094C6.15362 173.292 10.4886 180.868 16.1647 187.391C21.8408 193.913 28.7468 199.254 36.4882 203.107C44.2295 206.96 52.6544 209.251 61.2817 209.849Z" fill="white"/>
<path d="M69.3844 137.826V0H0.503784V68.9663C0.503784 87.2289 7.76083 104.744 20.6785 117.657C33.5961 130.571 51.1161 137.826 69.3844 137.826Z" fill="white"/>
</svg>
